<svg id="kity_svg_6" xmlns="http://www.w3.org/2000/svg" xmlns:xlink="http://www.w3.org/1999/xlink" version="1.1" width="1044" height="1108" style="background: rgb(251, 251, 251); visibility: visible;" viewBox="0 0 1044 1108"><defs id="kity_defs_7"><linearGradient id="kity_linearGradient_17" x1="0" y1="0" x2="0" y2="1"><stop id="kity_stop_18" offset="0" stop-color="rgb(255, 255, 255)"></stop><stop id="kity_stop_19" offset="1" stop-color="rgb(204, 204, 204)"></stop></linearGradient><marker id="kity_marker_2" orient="auto" refX="6" refY="0" viewBox="-7 -7 14 14" markerWidth="7" markerHeight="7" markerUnits="userSpaceOnUse"><path id="kity_path_3" fill="rgb(115, 161, 191)" stroke="none" d="M6,0A6,6,0,1,1,-6,0A6,6,0,1,1,6,0"></path></marker></defs><g id="kity_g_8"><g id="minder1" text-rendering="optimize-speed"><g id="minder_connect_group1"><path id="kity_path_40" fill="none" stroke="rgb(115, 161, 191)" stroke-width="1" d="M62,600.5A168.5,308.5,0,0,0,230.5,909"></path><path id="kity_path_48" fill="none" stroke="rgb(115, 161, 191)" stroke-width="1" d="M62,600.5A165.5,136,0,0,0,227.5,736.5"></path><path id="kity_path_56" fill="none" stroke="rgb(115, 161, 191)" stroke-width="1" d="M62,600.5A164.5,473.5,0,0,0,226.5,1074"></path><path id="kity_path_78" fill="none" stroke="rgb(115, 161, 191)" stroke-width="1" d="M62,600.5A173.5,334,0,0,1,235.5,266.5"></path><path id="kity_path_182" fill="none" stroke="rgb(115, 161, 191)" stroke-width="1" d="M367.5,266.5C382.5,266.5,382.5,45.5,397.5,45.5L555.5,45.5"></path><path id="kity_path_183" fill="none" stroke="rgb(115, 161, 191)" stroke-width="1" d="M367.5,266.5C382.5,266.5,382.5,97.5,397.5,97.5L606.5,97.5"></path><path id="kity_path_184" fill="none" stroke="rgb(115, 161, 191)" stroke-width="1" d="M675.5,160.5C690.5,160.5,690.5,108.5,705.5,108.5L839.5,108.5"></path><path id="kity_path_185" fill="none" stroke="rgb(115, 161, 191)" stroke-width="1" d="M675.5,160.5C690.5,160.5,690.5,160.5,705.5,160.5L861.5,160.5"></path><path id="kity_path_186" fill="none" stroke="rgb(115, 161, 191)" stroke-width="1" d="M675.5,160.5C690.5,160.5,690.5,212.5,705.5,212.5L852.5,212.5"></path><path id="kity_path_187" fill="none" stroke="rgb(115, 161, 191)" stroke-width="1" d="M367.5,266.5C383,266.5,383,160.5,398.5,160.5L675.5,160.5"></path><path id="kity_path_188" fill="none" stroke="rgb(115, 161, 191)" stroke-width="1" d="M367.5,266.5C385,266.5,385,229.5,402.5,229.5L596.5,229.5"></path><path id="kity_path_189" fill="none" stroke="rgb(115, 161, 191)" stroke-width="1" d="M367.5,266.5C378,266.5,378,285.5,388.5,285.5L705.5,285.5"></path><path id="kity_path_190" fill="none" stroke="rgb(115, 161, 191)" stroke-width="1" d="M565.5,369.5C580,369.5,580,396.5,594.5,396.5L1024.5,396.5"></path><path id="kity_path_191" fill="none" stroke="rgb(115, 161, 191)" stroke-width="1" d="M367.5,266.5C383.5,266.5,383.5,369.5,399.5,369.5L565.5,369.5"></path><path id="kity_path_192" fill="none" stroke="rgb(115, 161, 191)" stroke-width="1" d="M367.5,266.5C380,266.5,380,445.5,392.5,445.5L722.5,445.5"></path><path id="kity_path_366" fill="none" stroke="rgb(115, 161, 191)" stroke-width="1" d="M557.5,584.5C588.5,584.5,588.5,491.5,619.5,491.5L730.5,491.5"></path><path id="kity_path_367" fill="none" stroke="rgb(115, 161, 191)" stroke-width="1" d="M557.5,584.5C587.5,584.5,587.5,537.5,617.5,537.5L726.5,537.5"></path><path id="kity_path_368" fill="none" stroke="rgb(115, 161, 191)" stroke-width="1" d="M557.5,584.5C588,584.5,588,586.5,618.5,586.5L733.5,586.5"></path><path id="kity_path_369" fill="none" stroke="rgb(115, 161, 191)" stroke-width="1" d="M557.5,584.5C588,584.5,588,631.5,618.5,631.5L715.5,631.5"></path><path id="kity_path_370" fill="none" stroke="rgb(115, 161, 191)" stroke-width="1" d="M557.5,584.5C588.5,584.5,588.5,674.5,619.5,674.5L737.5,674.5"></path><path id="kity_path_371" fill="none" stroke="rgb(115, 161, 191)" stroke-width="1" d="M369.5,736.5C424.5,736.5,424.5,584.5,479.5,584.5L557.5,584.5"></path><path id="kity_path_372" fill="none" stroke="rgb(115, 161, 191)" stroke-width="1" d="M566.5,836.5C590,836.5,590,734.5,613.5,734.5L752.5,734.5"></path><path id="kity_path_373" fill="none" stroke="rgb(115, 161, 191)" stroke-width="1" d="M566.5,836.5C591,836.5,591,782.5,615.5,782.5L741.5,782.5"></path><path id="kity_path_374" fill="none" stroke="rgb(115, 161, 191)" stroke-width="1" d="M566.5,836.5C590,836.5,590,836.5,613.5,836.5L762.5,836.5"></path><path id="kity_path_375" fill="none" stroke="rgb(115, 161, 191)" stroke-width="1" d="M566.5,836.5C592.5,836.5,592.5,893.5,618.5,893.5L753.5,893.5"></path><path id="kity_path_376" fill="none" stroke="rgb(115, 161, 191)" stroke-width="1" d="M566.5,836.5C593.5,836.5,593.5,935.5,620.5,935.5L812.5,935.5"></path><path id="kity_path_377" fill="none" stroke="rgb(115, 161, 191)" stroke-width="1" d="M369.5,736.5C429,736.5,429,836.5,488.5,836.5L566.5,836.5"></path></g><g id="minder_node1"><path id="kity_path_30" fill="rgba(0, 0, 0, .25)" stroke="none" d="M45.5,583.5h102a22,22,0,0,1,22,22v0a22,22,0,0,1,-22,22h-102a22,22,0,0,1,-22,-22v0a22,22,0,0,1,22,-22z" display="none"></path><path id="node_outline1" fill="rgb(115, 161, 191)" stroke="rgb(115, 161, 191)" d="M25.5,580.5h73a5,5,0,0,1,5,5v30a5,5,0,0,1,-5,5h-73a5,5,0,0,1,-5,-5v-30a5,5,0,0,1,5,-5z" stroke-width="3"></path><g id="node_text1" fill="white"><text id="kity_text_22" text-rendering="inherit" font-size="16" dy=".8em" y="592.5" x="44.5">pwa</text></g></g><g id="kity_g_14" display="none"><path id="kity_path_15" fill="rgba(0, 92, 153, 0.5)" stroke="none" d="M531.5,588.5h116v15h-116z"></path><path id="kity_path_16" fill="none" stroke="rgb(0, 76, 128)" d="M531.5,603.5L647.5,603.5" stroke-width="1"></path></g><g id="minder_node3" opacity="1"><g id="node_expander2" style="cursor: pointer;" display="none"><path id="kity_path_45" fill="white" stroke="gray" d="M231.5,909A6,6,0,1,1,219.5,909A6,6,0,1,1,231.5,909"></path><path id="kity_path_46" fill="none" stroke="gray"></path></g><path id="node_outline3" fill="rgb(238, 243, 246)" stroke="rgb(115, 161, 191)" d="M235.5,894.5h111a3,3,0,0,1,3,3v23a3,3,0,0,1,-3,3h-111a3,3,0,0,1,-3,-3v-23a3,3,0,0,1,3,-3z" stroke-width="1"></path><g id="node_text3" fill="black"><text id="kity_text_42" text-rendering="inherit" font-size="14" dy=".8em" y="901.5" font-weight="bold" x="252.5">Push API</text></g><g id="kity_g_71" style="cursor: pointer;"><path id="kity_path_72" fill="none" stroke="none" d="M316,900h12a2,2,0,0,1,2,2v13a2,2,0,0,1,-2,2h-12a2,2,0,0,1,-2,-2v-13a2,2,0,0,1,2,-2z"></path><path id="kity_path_73" fill="black" stroke="none" d="M325,911H319V910h6L325,911L325,911zM325,909H319V908h6V909zM325,907H319V906h6V907zM324.5,913H318V904h8v7.5M325,914l2,-2V903H317v11"></path></g></g><g id="minder_node4" opacity="1"><g id="node_expander3" style="cursor: pointer;"><path id="kity_path_53" fill="white" stroke="gray" d="M382.5,736.5A6,6,0,1,1,370.5,736.5A6,6,0,1,1,382.5,736.5"></path><path id="kity_path_54" fill="none" stroke="gray" d="M372,736.5L381,736.5"></path></g><path id="node_outline4" fill="rgb(238, 243, 246)" stroke="rgb(115, 161, 191)" d="M232.5,723.5h134a3,3,0,0,1,3,3v20a3,3,0,0,1,-3,3h-134a3,3,0,0,1,-3,-3v-20a3,3,0,0,1,3,-3z" stroke-width="1"></path><g id="node_text4" fill="black"><text id="kity_text_50" text-rendering="inherit" font-size="14" dy=".8em" y="729.5" font-weight="bold" x="249.5">Service Worker</text></g></g><g id="minder_node5" opacity="1"><g id="node_expander4" style="cursor: pointer;" display="none"><path id="kity_path_61" fill="white" stroke="gray" d="M411.5,1074A6,6,0,1,1,399.5,1074A6,6,0,1,1,411.5,1074"></path><path id="kity_path_62" fill="none" stroke="gray"></path></g><path id="node_outline5" fill="rgb(238, 243, 246)" stroke="rgb(115, 161, 191)" d="M231.5,1059.5h164a3,3,0,0,1,3,3v23a3,3,0,0,1,-3,3h-164a3,3,0,0,1,-3,-3v-23a3,3,0,0,1,3,-3z" stroke-width="1"></path><g id="node_text5" fill="black"><text id="kity_text_58" text-rendering="inherit" font-size="14" dy=".8em" y="1066.5" font-weight="bold" x="248.5">Notifications API</text></g><g id="kity_g_74" style="cursor: pointer;"><path id="kity_path_75" fill="none" stroke="none" d="M365,1065h12a2,2,0,0,1,2,2v13a2,2,0,0,1,-2,2h-12a2,2,0,0,1,-2,-2v-13a2,2,0,0,1,2,-2z"></path><path id="kity_path_76" fill="black" stroke="none" d="M374,1076H368V1075h6L374,1076L374,1076zM374,1074H368V1073h6V1074zM374,1072H368V1071h6V1072zM373.5,1078H367V1069h8v7.5M374,1079l2,-2V1068H366v11"></path></g></g><g id="minder_node7" opacity="1"><g id="node_expander6" style="cursor: pointer;"><path id="kity_path_83" fill="white" stroke="gray" d="M236.5,266.5A6,6,0,1,1,224.5,266.5A6,6,0,1,1,236.5,266.5"></path><path id="kity_path_84" fill="none" stroke="gray" d="M226,266.5L235,266.5"></path></g><path id="node_outline7" fill="rgb(238, 243, 246)" stroke="rgb(115, 161, 191)" d="M240.5,253.5h124a3,3,0,0,1,3,3v20a3,3,0,0,1,-3,3h-124a3,3,0,0,1,-3,-3v-20a3,3,0,0,1,3,-3z" stroke-width="1"></path><g id="node_text7" fill="black"><text id="kity_text_80" text-rendering="inherit" font-size="14" dy=".8em" y="259.5" font-weight="bold" x="257.5">App Manifest</text></g></g><g id="minder_node2" opacity="1"><g id="node_expander1" style="cursor: pointer;" display="none"><path id="kity_path_37" fill="white" stroke="gray" d="M407.5,31.5A6,6,0,1,1,395.5,31.5A6,6,0,1,1,407.5,31.5"></path><path id="kity_path_38" fill="none" stroke="gray" d="M397,31.5L406,31.5"></path></g><path id="node_outline2" fill="none" stroke="none" d="M412.5,20.5h138a5,5,0,0,1,5,5v12a5,5,0,0,1,-5,5h-138a5,5,0,0,1,-5,-5v-12a5,5,0,0,1,5,-5z" stroke-width="3"></path><g id="node_text2" fill="black"><text id="kity_text_34" text-rendering="inherit" font-size="12" dy=".8em" y="25.5" x="417.5">name:{string} 应用名称</text></g></g><g id="minder_node8"><g id="node_expander7" style="cursor: pointer;" display="none"><path id="kity_path_91" fill="white" stroke="gray" d="M407.5,83.5A6,6,0,1,1,395.5,83.5A6,6,0,1,1,407.5,83.5"></path><path id="kity_path_92" fill="none" stroke="gray"></path></g><path id="node_outline8" fill="none" stroke="none" d="M412.5,72.5h189a5,5,0,0,1,5,5v12a5,5,0,0,1,-5,5h-189a5,5,0,0,1,-5,-5v-12a5,5,0,0,1,5,-5z" stroke-width="3"></path><g id="node_text8" fill="black"><text id="kity_text_88" text-rendering="inherit" font-size="12" dy=".8em" y="77.5" x="417.5">short_name: {string}&#xa0; 应用短名称</text></g></g><g id="minder_node10"><g id="node_expander9" style="cursor: pointer;" display="none"><path id="kity_path_107" fill="white" stroke="gray" d="M715.5,94.5A6,6,0,1,1,703.5,94.5A6,6,0,1,1,715.5,94.5"></path><path id="kity_path_108" fill="none" stroke="gray"></path></g><path id="node_outline10" fill="none" stroke="none" d="M720.5,83.5h114a5,5,0,0,1,5,5v12a5,5,0,0,1,-5,5h-114a5,5,0,0,1,-5,-5v-12a5,5,0,0,1,5,-5z" stroke-width="3"></path><g id="node_text10" fill="black"><text id="kity_text_104" text-rendering="inherit" font-size="12" dy=".8em" y="88.5" x="725.5">src: {string} 图标 url</text></g></g><g id="minder_node11"><g id="node_expander10" style="cursor: pointer;" display="none"><path id="kity_path_115" fill="white" stroke="gray" d="M715.5,146.5A6,6,0,1,1,703.5,146.5A6,6,0,1,1,715.5,146.5"></path><path id="kity_path_116" fill="none" stroke="gray"></path></g><path id="node_outline11" fill="none" stroke="none" d="M720.5,135.5h136a5,5,0,0,1,5,5v12a5,5,0,0,1,-5,5h-136a5,5,0,0,1,-5,-5v-12a5,5,0,0,1,5,-5z" stroke-width="3"></path><g id="node_text11" fill="black"><text id="kity_text_112" text-rendering="inherit" font-size="12" dy=".8em" y="140.5" x="725.5">type {string=} 图标类型</text></g></g><g id="minder_node12"><g id="node_expander11" style="cursor: pointer;" display="none"><path id="kity_path_123" fill="white" stroke="gray" d="M715.5,198.5A6,6,0,1,1,703.5,198.5A6,6,0,1,1,715.5,198.5"></path><path id="kity_path_124" fill="none" stroke="gray"></path></g><path id="node_outline12" fill="none" stroke="none" d="M720.5,187.5h127a5,5,0,0,1,5,5v12a5,5,0,0,1,-5,5h-127a5,5,0,0,1,-5,-5v-12a5,5,0,0,1,5,-5z" stroke-width="3"></path><g id="node_text12" fill="black"><text id="kity_text_120" text-rendering="inherit" font-size="12" dy=".8em" y="192.5" x="725.5">sizes {string} 图标尺寸</text></g></g><g id="minder_node9" opacity="1"><g id="node_expander8" style="cursor: pointer;"><path id="kity_path_99" fill="white" stroke="gray" d="M408.5,146.5A6,6,0,1,1,396.5,146.5A6,6,0,1,1,408.5,146.5"></path><path id="kity_path_100" fill="none" stroke="gray" d="M398,146.5L407,146.5"></path></g><path id="node_outline9" fill="none" stroke="none" d="M413.5,135.5h257a5,5,0,0,1,5,5v12a5,5,0,0,1,-5,5h-257a5,5,0,0,1,-5,-5v-12a5,5,0,0,1,5,-5z" stroke-width="3"></path><g id="node_text9" fill="black"><text id="kity_text_96" text-rendering="inherit" font-size="12" dy=".8em" y="140.5" x="418.5">icons:&#xa0;{Array.&lt;ImageObject&gt;}&#xa0;应用图标列表</text></g></g><g id="minder_node13" opacity="1"><g id="node_expander12" style="cursor: pointer;" display="none"><path id="kity_path_134" fill="white" stroke="gray" d="M412.5,215.5A6,6,0,1,1,400.5,215.5A6,6,0,1,1,412.5,215.5"></path><path id="kity_path_135" fill="none" stroke="gray"></path></g><path id="node_outline13" fill="none" stroke="none" d="M417.5,204.5h174a5,5,0,0,1,5,5v12a5,5,0,0,1,-5,5h-174a5,5,0,0,1,-5,-5v-12a5,5,0,0,1,5,-5z" stroke-width="3"></path><g id="node_text13" fill="black"><text id="kity_text_131" text-rendering="inherit" font-size="12" dy=".8em" y="209.5" x="422.5">start_url: {string} 应用启动地址</text></g></g><g id="minder_node14" opacity="1"><g id="node_expander13" style="cursor: pointer;" display="none"><path id="kity_path_142" fill="white" stroke="gray" d="M398.5,271.5A6,6,0,1,1,386.5,271.5A6,6,0,1,1,398.5,271.5"></path><path id="kity_path_143" fill="none" stroke="gray"></path></g><path id="node_outline14" fill="none" stroke="none" d="M403.5,260.5h297a5,5,0,0,1,5,5v12a5,5,0,0,1,-5,5h-297a5,5,0,0,1,-5,-5v-12a5,5,0,0,1,5,-5z" stroke-width="3"></path><g id="node_text14" fill="black"><text id="kity_text_139" text-rendering="inherit" font-size="12" dy=".8em" y="265.5" x="408.5">background_color: {color}&#xa0;指定启动画面的背景颜色</text></g></g><g id="minder_node16" opacity="1"><g id="node_expander15" style="cursor: pointer;" display="none"><path id="kity_path_158" fill="white" stroke="gray" d="M604.5,355.5A6,6,0,1,1,592.5,355.5A6,6,0,1,1,604.5,355.5"></path><path id="kity_path_159" fill="none" stroke="gray"></path></g><path id="node_outline16" fill="none" stroke="none" d="M609.5,317.5h410a5,5,0,0,1,5,5v66a5,5,0,0,1,-5,5h-410a5,5,0,0,1,-5,-5v-66a5,5,0,0,1,5,-5z" stroke-width="3"></path><g id="node_text16" fill="black"><text id="kity_text_155" text-rendering="inherit" font-size="12" dy=".8em" y="322.5" x="614.5">fullscreen显示界面将占满整个屏幕</text><text id="kity_text_160" text-rendering="inherit" font-size="12" dy=".8em" y="340.5" x="614.5">standalone浏览器相关UI（如导航栏、工具栏等）将会被隐藏</text><text id="kity_text_161" text-rendering="inherit" font-size="12" dy=".8em" y="358.5" x="614.5">minimal-ui显示形式与standalone类似，浏览器相关UI会最小化为一个按钮</text><text id="kity_text_162" text-rendering="inherit" font-size="12" dy=".8em" y="376.5" x="614.5">browser浏览器模式，与普通网页在浏览器中打开的显示一致</text></g></g><g id="minder_node15" opacity="1"><g id="node_expander14" style="cursor: pointer;"><path id="kity_path_150" fill="white" stroke="gray" d="M409.5,355.5A6,6,0,1,1,397.5,355.5A6,6,0,1,1,409.5,355.5"></path><path id="kity_path_151" fill="none" stroke="gray" d="M399,355.5L408,355.5"></path></g><path id="node_outline15" fill="none" stroke="none" d="M414.5,344.5h146a5,5,0,0,1,5,5v12a5,5,0,0,1,-5,5h-146a5,5,0,0,1,-5,-5v-12a5,5,0,0,1,5,-5z" stroke-width="3"></path><g id="node_text15" fill="black"><text id="kity_text_147" text-rendering="inherit" font-size="12" dy=".8em" y="349.5" x="419.5">display: {string} 显示类型 </text></g></g><g id="minder_node17" opacity="1"><g id="node_expander16" style="cursor: pointer;" display="none"><path id="kity_path_169" fill="white" stroke="gray" d="M402.5,431.5A6,6,0,1,1,390.5,431.5A6,6,0,1,1,402.5,431.5"></path><path id="kity_path_170" fill="none" stroke="gray"></path></g><path id="node_outline17" fill="none" stroke="none" d="M407.5,420.5h310a5,5,0,0,1,5,5v12a5,5,0,0,1,-5,5h-310a5,5,0,0,1,-5,-5v-12a5,5,0,0,1,5,-5z" stroke-width="3"></path><g id="node_text17" fill="black"><text id="kity_text_166" text-rendering="inherit" font-size="12" dy=".8em" y="425.5" x="412.5">theme_color: {Color}控制状态栏、浏览器地址栏的颜色</text></g></g><g id="kity_g_12" display="none"><path id="kity_path_13" fill="none" stroke="rgb(66, 94, 112)" d="M237.5,525.5h134a3,3,0,0,1,3,3v20a3,3,0,0,1,-3,3h-134a3,3,0,0,1,-3,-3v-20a3,3,0,0,1,3,-3z" stroke-width="5"></path></g><g id="minder_node20" opacity="1"><g id="node_expander19" style="cursor: pointer;" display="none"><path id="kity_path_215" fill="white" stroke="gray" d="M629.5,477.5A6,6,0,1,1,617.5,477.5A6,6,0,1,1,629.5,477.5"></path><path id="kity_path_216" fill="none" stroke="gray"></path></g><path id="node_outline20" fill="none" stroke="none" d="M634.5,466.5h91a5,5,0,0,1,5,5v12a5,5,0,0,1,-5,5h-91a5,5,0,0,1,-5,-5v-12a5,5,0,0,1,5,-5z" stroke-width="3"></path><g id="node_text20" fill="black"><text id="kity_text_212" text-rendering="inherit" font-size="12" dy=".8em" y="471.5" x="639.5">regsiter： 注册</text></g></g><g id="minder_node21" opacity="1"><g id="node_expander20" style="cursor: pointer;" display="none"><path id="kity_path_224" fill="white" stroke="gray" d="M627.5,523.5A6,6,0,1,1,615.5,523.5A6,6,0,1,1,627.5,523.5"></path><path id="kity_path_225" fill="none" stroke="gray"></path></g><path id="node_outline21" fill="none" stroke="none" d="M632.5,512.5h89a5,5,0,0,1,5,5v12a5,5,0,0,1,-5,5h-89a5,5,0,0,1,-5,-5v-12a5,5,0,0,1,5,-5z" stroke-width="3"></path><g id="node_text21" fill="black"><text id="kity_text_221" text-rendering="inherit" font-size="12" dy=".8em" y="517.5" x="637.5">install：初始化</text></g></g><g id="minder_node22" opacity="1"><g id="node_expander21" style="cursor: pointer;" display="none"><path id="kity_path_238" fill="white" stroke="gray" d="M628.5,572.5A6,6,0,1,1,616.5,572.5A6,6,0,1,1,628.5,572.5"></path><path id="kity_path_239" fill="none" stroke="gray"></path></g><path id="node_outline22" fill="none" stroke="none" d="M633.5,561.5h95a5,5,0,0,1,5,5v12a5,5,0,0,1,-5,5h-95a5,5,0,0,1,-5,-5v-12a5,5,0,0,1,5,-5z" stroke-width="3"></path><g id="node_text22" fill="black"><text id="kity_text_235" text-rendering="inherit" font-size="12" dy=".8em" y="566.5" x="638.5">activate：激活</text></g></g><g id="minder_node23" opacity="1"><g id="node_expander22" style="cursor: pointer;" display="none"><path id="kity_path_246" fill="white" stroke="gray" d="M628.5,617.5A6,6,0,1,1,616.5,617.5A6,6,0,1,1,628.5,617.5"></path><path id="kity_path_247" fill="none" stroke="gray"></path></g><path id="node_outline23" fill="none" stroke="none" d="M633.5,606.5h77a5,5,0,0,1,5,5v12a5,5,0,0,1,-5,5h-77a5,5,0,0,1,-5,-5v-12a5,5,0,0,1,5,-5z" stroke-width="3"></path><g id="node_text23" fill="black"><text id="kity_text_243" text-rendering="inherit" font-size="12" dy=".8em" y="611.5" x="638.5">fetch：拦截</text></g></g><g id="minder_node24" opacity="1"><g id="node_expander23" style="cursor: pointer;" display="none"><path id="kity_path_254" fill="white" stroke="gray" d="M629.5,660.5A6,6,0,1,1,617.5,660.5A6,6,0,1,1,629.5,660.5"></path><path id="kity_path_255" fill="none" stroke="gray"></path></g><path id="node_outline24" fill="none" stroke="none" d="M634.5,649.5h98a5,5,0,0,1,5,5v12a5,5,0,0,1,-5,5h-98a5,5,0,0,1,-5,-5v-12a5,5,0,0,1,5,-5z" stroke-width="3"></path><g id="node_text24" fill="black"><text id="kity_text_251" text-rendering="inherit" font-size="12" dy=".8em" y="654.5" x="639.5">message：通讯</text></g></g><g id="minder_node18" opacity="1"><g id="node_expander17" style="cursor: pointer;"><path id="kity_path_199" fill="white" stroke="gray" d="M489.5,570.5A6,6,0,1,1,477.5,570.5A6,6,0,1,1,489.5,570.5"></path><path id="kity_path_200" fill="none" stroke="gray" d="M479,570.5L488,570.5"></path></g><path id="node_outline18" fill="none" stroke="none" d="M494.5,559.5h58a5,5,0,0,1,5,5v12a5,5,0,0,1,-5,5h-58a5,5,0,0,1,-5,-5v-12a5,5,0,0,1,5,-5z" stroke-width="3"></path><g id="node_text18" fill="black"><text id="kity_text_196" text-rendering="inherit" font-size="12" dy=".8em" y="564.5" x="499.5">主要事件</text></g></g><g id="minder_node25" opacity="1"><g id="node_expander24" style="cursor: pointer;" display="none"><path id="kity_path_298" fill="white" stroke="gray" d="M623.5,720.5A6,6,0,1,1,611.5,720.5A6,6,0,1,1,623.5,720.5"></path><path id="kity_path_299" fill="none" stroke="gray"></path></g><path id="node_outline25" fill="none" stroke="none" d="M628.5,709.5h119a5,5,0,0,1,5,5v12a5,5,0,0,1,-5,5h-119a5,5,0,0,1,-5,-5v-12a5,5,0,0,1,5,-5z" stroke-width="3"></path><g id="node_text25" fill="black"><text id="kity_text_295" text-rendering="inherit" font-size="12" dy=".8em" y="714.5" x="633.5">installing：正在安装</text></g></g><g id="minder_node26" opacity="1"><g id="node_expander25" style="cursor: pointer;" display="none"><path id="kity_path_306" fill="white" stroke="gray" d="M625.5,768.5A6,6,0,1,1,613.5,768.5A6,6,0,1,1,625.5,768.5"></path><path id="kity_path_307" fill="none" stroke="gray"></path></g><path id="node_outline26" fill="none" stroke="none" d="M630.5,757.5h106a5,5,0,0,1,5,5v12a5,5,0,0,1,-5,5h-106a5,5,0,0,1,-5,-5v-12a5,5,0,0,1,5,-5z" stroke-width="3"></path><g id="node_text26" fill="black"><text id="kity_text_303" text-rendering="inherit" font-size="12" dy=".8em" y="762.5" x="635.5">installed：已安装</text></g></g><g id="minder_node27" opacity="1"><g id="node_expander26" style="cursor: pointer;" display="none"><path id="kity_path_314" fill="white" stroke="gray" d="M623.5,822.5A6,6,0,1,1,611.5,822.5A6,6,0,1,1,623.5,822.5"></path><path id="kity_path_315" fill="none" stroke="gray"></path></g><path id="node_outline27" fill="none" stroke="none" d="M628.5,811.5h129a5,5,0,0,1,5,5v12a5,5,0,0,1,-5,5h-129a5,5,0,0,1,-5,-5v-12a5,5,0,0,1,5,-5z" stroke-width="3"></path><g id="node_text27" fill="black"><text id="kity_text_311" text-rendering="inherit" font-size="12" dy=".8em" y="816.5" x="633.5">activating：正在激活</text></g></g><g id="minder_node28" opacity="1"><g id="node_expander27" style="cursor: pointer;" display="none"><path id="kity_path_322" fill="white" stroke="gray" d="M628.5,879.5A6,6,0,1,1,616.5,879.5A6,6,0,1,1,628.5,879.5"></path><path id="kity_path_323" fill="none" stroke="gray"></path></g><path id="node_outline28" fill="none" stroke="none" d="M633.5,868.5h115a5,5,0,0,1,5,5v12a5,5,0,0,1,-5,5h-115a5,5,0,0,1,-5,-5v-12a5,5,0,0,1,5,-5z" stroke-width="3"></path><g id="node_text28" fill="black"><text id="kity_text_319" text-rendering="inherit" font-size="12" dy=".8em" y="873.5" x="638.5">activated：已激活</text></g></g><g id="minder_node29" opacity="1"><g id="node_expander28" style="cursor: pointer;" display="none"><path id="kity_path_330" fill="white" stroke="gray" d="M630.5,921.5A6,6,0,1,1,618.5,921.5A6,6,0,1,1,630.5,921.5"></path><path id="kity_path_331" fill="none" stroke="gray"></path></g><path id="node_outline29" fill="none" stroke="none" d="M635.5,910.5h172a5,5,0,0,1,5,5v12a5,5,0,0,1,-5,5h-172a5,5,0,0,1,-5,-5v-12a5,5,0,0,1,5,-5z" stroke-width="3"></path><g id="node_text29" fill="black"><text id="kity_text_327" text-rendering="inherit" font-size="12" dy=".8em" y="915.5" x="640.5">Redundant：废弃、状态结束</text></g></g><g id="minder_node19" opacity="1"><g id="node_expander18" style="cursor: pointer;"><path id="kity_path_207" fill="white" stroke="gray" d="M498.5,822.5A6,6,0,1,1,486.5,822.5A6,6,0,1,1,498.5,822.5"></path><path id="kity_path_208" fill="none" stroke="gray" d="M488,822.5L497,822.5"></path></g><path id="node_outline19" fill="none" stroke="none" d="M503.5,811.5h58a5,5,0,0,1,5,5v12a5,5,0,0,1,-5,5h-58a5,5,0,0,1,-5,-5v-12a5,5,0,0,1,5,-5z" stroke-width="3"></path><g id="node_text19" fill="black"><text id="kity_text_204" text-rendering="inherit" font-size="12" dy=".8em" y="816.5" x="508.5">生命周期</text></g></g></g></g></svg>